<?xml version="1.0" encoding="UTF-8"?>
<svg width="54px" height="55px" viewBox="0 0 54 55" version="1.1" xmlns="http://www.w3.org/2000/svg" xmlns:xlink="http://www.w3.org/1999/xlink">
    <!-- Generator: Sketch 55.2 (78181) - https://sketchapp.com -->
    <title>gnomon-bottom</title>
    <desc>Created with Sketch.</desc>
    <g id="页面1" stroke="none" stroke-width="1" fill="none" fill-rule="evenodd" stroke-linecap="round" stroke-linejoin="round">
        <g id="画板" fill-rule="nonzero" stroke="#636363" stroke-width="1.52">
            <g id="gnomon-bottom" transform="translate(-1.000000, 0.000000)">
                <path d="M29.305,26.353 L30.683,27.386 C31.083,27.687 31.36,28.124 31.459,28.614 L31.459,28.614 C31.56,29.113 31.529,29.63 31.368,30.113 L31.311,30.282 C31.017,31.165 30.384,31.895 29.551,32.311 L29.328,32.423 C28.341,32.917 27.217,33.067 26.135,32.851 L25.863,32.796 C24.661,32.556 23.589,31.88 22.854,30.899 L22.854,30.899 C22.126,29.93 21.847,28.697 22.084,27.509 L22.203,26.914 C22.381,26.025 22.731,25.179 23.234,24.425 L23.234,24.425 C23.734,23.676 24.419,23.071 25.224,22.668 L25.52,22.52 C26.521,22.02 27.626,21.759 28.746,21.759 L28.947,21.759 C30.18,21.759 31.376,22.178 32.339,22.948 L33.72,24.053 C34.334,24.544 34.792,25.202 35.041,25.948 L35.041,25.948 C35.293,26.705 35.422,27.497 35.422,28.295 L35.422,29.44 C35.422,30.894 35.027,32.319 34.279,33.565 L34.279,33.565 C33.542,34.794 32.389,35.719 31.03,36.172 L30.764,36.261 C29.321,36.742 27.782,36.862 26.281,36.612 L26.019,36.569 C24.674,36.344 23.358,35.976 22.092,35.47 L21.956,35.415 C20.799,34.953 19.792,34.181 19.045,33.185 L19.045,33.185 C18.293,32.182 17.775,31.023 17.529,29.794 L17.521,29.757 C17.272,28.509 17.352,27.217 17.755,26.01 L18.062,25.089 C18.461,23.892 19.05,22.768 19.807,21.759 L19.807,21.759 C20.565,20.748 21.462,19.851 22.473,19.093 L22.473,19.093 C23.474,18.342 24.64,17.843 25.874,17.637 L26.281,17.569 C27.794,17.317 29.339,17.317 30.852,17.569 L30.946,17.585 C32.394,17.826 33.783,18.338 35.041,19.093 L35.041,19.093 C36.285,19.839 37.29,20.924 37.938,22.222 L38.194,22.734 C38.881,24.107 39.359,25.576 39.611,27.091 L39.611,27.091 C39.863,28.604 39.863,30.148 39.611,31.661 L39.611,31.661 C39.36,33.167 38.792,34.603 37.945,35.874 L37.707,36.231 C36.713,37.723 35.307,38.892 33.659,39.598 L33.518,39.659 C31.759,40.413 29.865,40.802 27.951,40.802 L27.167,40.802 C25.571,40.802 23.986,40.545 22.473,40.04 L22.294,39.981 C20.894,39.514 19.549,38.895 18.283,38.136 L18.283,38.136 C17.033,37.386 15.987,36.339 15.236,35.089 L15.093,34.85 C14.432,33.748 13.965,32.54 13.713,31.28 L13.713,31.28 C13.46,30.014 13.332,28.725 13.332,27.434 L13.332,25.837 C13.332,24.157 13.723,22.5 14.475,20.997 L14.766,20.415 C15.332,19.282 16,18.202 16.76,17.188 L16.76,17.188 C17.513,16.183 18.465,15.343 19.556,14.72 L20.896,13.954 C22.441,13.072 24.139,12.489 25.9,12.237 L26.273,12.184 C27.793,11.967 29.337,11.985 30.852,12.237 L31.114,12.281 C32.458,12.505 33.775,12.874 35.041,13.38 L35.041,13.38 C36.304,13.885 37.485,14.573 38.547,15.423 L38.85,15.665 C40.104,16.669 41.126,17.933 41.845,19.37 L42.337,20.354 C42.804,21.288 43.167,22.27 43.42,23.282 L43.42,23.282 C43.673,24.294 43.801,25.333 43.801,26.376 L43.801,27.091 C43.801,28.606 43.58,30.113 43.144,31.565 L42.525,33.63 C41.859,35.847 40.737,37.901 39.23,39.659 L39.23,39.659 C37.738,41.4 35.778,42.675 33.582,43.334 L32.632,43.619 C30.452,44.273 28.162,44.481 25.9,44.229 L24.511,44.075 C23.158,43.925 21.832,43.592 20.568,43.087 L20.568,43.087 C19.306,42.582 18.124,41.893 17.063,41.044 L14.855,39.278" id="路径"></path>
                <g id="编组" transform="translate(30.964047, 49.038110) rotate(-6.000000) translate(-30.964047, -49.038110) translate(21.964047, 44.038110)">
                    <path d="M4.333,6.615 L4.173,6.775 C3.814,7.134 3.264,7.223 2.809,6.996 L2.809,6.996 C2.342,6.763 2.048,6.285 2.048,5.763 L2.048,5.473 C2.048,4.79 2.484,4.184 3.131,3.969 L4.333,3.568 C4.333,3.568 8.141,5.282 8.141,5.853 C8.141,6.425 7.38,8.139 7.38,8.139 L5.695,8.981 C4.799,9.429 3.811,9.662 2.809,9.662 L2.809,9.662 C1.876,9.662 1.022,9.134 0.605,8.299 L0.524,8.139 C0.03,7.151 -0.12,6.027 0.096,4.945 L0.207,4.391 C0.414,3.358 0.922,2.409 1.667,1.664 L1.699,1.632 C2.425,0.905 3.336,0.39 4.333,0.141 L4.524,0.093 C5.372,-0.119 6.271,0.036 6.999,0.521 L6.999,0.521 C7.713,0.997 8.141,1.798 8.141,2.656 L8.141,3.568" id="路径"></path>
                    <path d="M12.712,6.615 L12.871,6.775 C13.231,7.134 13.78,7.223 14.235,6.996 L14.235,6.996 C14.702,6.763 14.997,6.285 14.997,5.763 L14.997,5.473 C14.997,4.79 14.56,4.184 13.913,3.969 L12.712,3.568 C12.712,3.568 8.903,5.282 8.903,5.853 C8.903,6.425 8.903,8.139 8.903,8.139 L11.297,9.096 C12.232,9.47 13.229,9.662 14.235,9.662 L14.235,9.662 C15.169,9.662 16.022,9.134 16.44,8.299 L16.52,8.139 C17.014,7.151 17.164,6.027 16.948,4.945 L16.837,4.391 C16.63,3.358 16.123,2.409 15.378,1.664 L15.345,1.632 C14.619,0.905 13.708,0.39 12.712,0.141 L12.52,0.093 C11.672,-0.119 10.773,0.036 10.046,0.521 L10.046,0.521 C9.332,0.997 8.903,1.798 8.903,2.656 L8.903,3.568" id="路径"></path>
                </g>
                <g id="编组" transform="translate(23.876915, 6.703571) rotate(170.000000) translate(-23.876915, -6.703571) translate(14.876915, 1.703571)">
                    <path d="M12.712,6.615 L12.871,6.775 C13.231,7.134 13.78,7.223 14.235,6.996 L14.235,6.996 C14.702,6.763 14.997,6.285 14.997,5.763 L14.997,5.473 C14.997,4.79 14.56,4.184 13.913,3.969 L12.712,3.568 C12.712,3.568 8.903,5.282 8.903,5.853 C8.903,6.425 9.665,8.139 9.665,8.139 L11.349,8.981 C12.245,9.429 13.233,9.662 14.235,9.662 L14.235,9.662 C15.169,9.662 16.022,9.134 16.44,8.299 L16.52,8.139 C17.014,7.151 17.164,6.027 16.948,4.945 L16.837,4.391 C16.63,3.358 16.123,2.409 15.378,1.664 L15.345,1.632 C14.619,0.905 13.708,0.39 12.712,0.141 L12.52,0.093 C11.672,-0.119 10.773,0.036 10.046,0.521 L10.046,0.521 C9.332,0.997 8.903,1.798 8.903,2.656 L8.903,3.568" id="路径"></path>
                    <path d="M4.333,6.615 L4.173,6.775 C3.814,7.134 3.264,7.223 2.809,6.996 L2.809,6.996 C2.342,6.763 2.048,6.285 2.048,5.763 L2.048,5.473 C2.048,4.79 2.484,4.184 3.131,3.969 L4.333,3.568 C4.333,3.568 8.141,5.282 8.141,5.853 C8.141,6.425 8.141,8.139 8.141,8.139 L5.747,9.096 C4.813,9.47 3.816,9.662 2.809,9.662 L2.809,9.662 C1.876,9.662 1.022,9.134 0.605,8.299 L0.524,8.139 C0.03,7.151 -0.12,6.027 0.096,4.945 L0.207,4.391 C0.414,3.358 0.922,2.409 1.667,1.664 L1.699,1.632 C2.425,0.905 3.336,0.39 4.333,0.141 L4.524,0.093 C5.372,-0.119 6.271,0.036 6.999,0.521 L6.999,0.521 C7.713,0.997 8.141,1.798 8.141,2.656 L8.141,3.568" id="路径"></path>
                </g>
                <g id="编组" transform="translate(40.854959, 10.411363) rotate(-143.000000) translate(-40.854959, -10.411363) translate(31.854959, 5.411363)">
                    <path d="M12.712,6.615 L12.871,6.775 C13.231,7.134 13.78,7.223 14.235,6.996 L14.235,6.996 C14.702,6.763 14.997,6.285 14.997,5.763 L14.997,5.473 C14.997,4.79 14.56,4.184 13.913,3.969 L12.712,3.568 C12.712,3.568 8.903,5.282 8.903,5.853 C8.903,6.425 9.665,8.139 9.665,8.139 L11.349,8.981 C12.245,9.429 13.233,9.662 14.235,9.662 L14.235,9.662 C15.169,9.662 16.022,9.134 16.44,8.299 L16.52,8.139 C17.014,7.151 17.164,6.027 16.948,4.945 L16.837,4.391 C16.63,3.358 16.123,2.409 15.378,1.664 L15.345,1.632 C14.619,0.905 13.708,0.39 12.712,0.141 L12.52,0.093 C11.672,-0.119 10.773,0.036 10.046,0.521 L10.046,0.521 C9.332,0.997 8.903,1.798 8.903,2.656 L8.903,3.568" id="路径"></path>
                    <path d="M4.333,6.615 L4.173,6.775 C3.814,7.134 3.264,7.223 2.809,6.996 L2.809,6.996 C2.342,6.763 2.048,6.285 2.048,5.763 L2.048,5.473 C2.048,4.79 2.484,4.184 3.131,3.969 L4.333,3.568 C4.333,3.568 8.141,5.282 8.141,5.853 C8.141,6.425 8.141,8.139 8.141,8.139 L5.747,9.096 C4.813,9.47 3.816,9.662 2.809,9.662 L2.809,9.662 C1.876,9.662 1.022,9.134 0.605,8.299 L0.524,8.139 C0.03,7.151 -0.12,6.027 0.096,4.945 L0.207,4.391 C0.414,3.358 0.922,2.409 1.667,1.664 L1.699,1.632 C2.425,0.905 3.336,0.39 4.333,0.141 L4.524,0.093 C5.372,-0.119 6.271,0.036 6.999,0.521 L6.999,0.521 C7.713,0.997 8.141,1.798 8.141,2.656 L8.141,3.568" id="路径"></path>
                </g>
                <g id="编组" transform="translate(48.887245, 25.579376) rotate(-94.000000) translate(-48.887245, -25.579376) translate(39.887245, 20.579376)">
                    <path d="M12.712,6.615 L12.871,6.775 C13.231,7.134 13.78,7.223 14.235,6.996 L14.235,6.996 C14.702,6.763 14.997,6.285 14.997,5.763 L14.997,5.473 C14.997,4.79 14.56,4.184 13.913,3.969 L12.712,3.568 C12.712,3.568 8.903,5.282 8.903,5.853 C8.903,6.425 9.665,8.139 9.665,8.139 L11.349,8.981 C12.245,9.429 13.233,9.662 14.235,9.662 L14.235,9.662 C15.169,9.662 16.022,9.134 16.44,8.299 L16.52,8.139 C17.014,7.151 17.164,6.027 16.948,4.945 L16.837,4.391 C16.63,3.358 16.123,2.409 15.378,1.664 L15.345,1.632 C14.619,0.905 13.708,0.39 12.712,0.141 L12.52,0.093 C11.672,-0.119 10.773,0.036 10.046,0.521 L10.046,0.521 C9.332,0.997 8.903,1.798 8.903,2.656 L8.903,3.568" id="路径"></path>
                    <path d="M4.333,6.615 L4.173,6.775 C3.814,7.134 3.264,7.223 2.809,6.996 L2.809,6.996 C2.342,6.763 2.048,6.285 2.048,5.763 L2.048,5.473 C2.048,4.79 2.484,4.184 3.131,3.969 L4.333,3.568 C4.333,3.568 8.141,5.282 8.141,5.853 C8.141,6.425 8.141,8.139 8.141,8.139 L5.747,9.096 C4.813,9.47 3.816,9.662 2.809,9.662 L2.809,9.662 C1.876,9.662 1.022,9.134 0.605,8.299 L0.524,8.139 C0.03,7.151 -0.12,6.027 0.096,4.945 L0.207,4.391 C0.414,3.358 0.922,2.409 1.667,1.664 L1.699,1.632 C2.425,0.905 3.336,0.39 4.333,0.141 L4.524,0.093 C5.372,-0.119 6.271,0.036 6.999,0.521 L6.999,0.521 C7.713,0.997 8.141,1.798 8.141,2.656 L8.141,3.568" id="路径"></path>
                </g>
                <g id="编组" transform="translate(45.609460, 41.030378) rotate(-52.000000) translate(-45.609460, -41.030378) translate(36.609460, 36.030378)">
                    <path d="M12.712,6.615 L12.871,6.775 C13.231,7.134 13.78,7.223 14.235,6.996 L14.235,6.996 C14.702,6.763 14.997,6.285 14.997,5.763 L14.997,5.473 C14.997,4.79 14.56,4.184 13.913,3.969 L12.712,3.568 C12.712,3.568 8.903,5.282 8.903,5.853 C8.903,6.425 9.665,8.139 9.665,8.139 L11.349,8.981 C12.245,9.429 13.233,9.662 14.235,9.662 L14.235,9.662 C15.169,9.662 16.022,9.134 16.44,8.299 L16.52,8.139 C17.014,7.151 17.164,6.027 16.948,4.945 L16.837,4.391 C16.63,3.358 16.123,2.409 15.378,1.664 L15.345,1.632 C14.619,0.905 13.708,0.39 12.712,0.141 L12.52,0.093 C11.672,-0.119 10.773,0.036 10.046,0.521 L10.046,0.521 C9.332,0.997 8.903,1.798 8.903,2.656 L8.903,3.568" id="路径"></path>
                    <path d="M4.333,6.615 L4.173,6.775 C3.814,7.134 3.264,7.223 2.809,6.996 L2.809,6.996 C2.342,6.763 2.048,6.285 2.048,5.763 L2.048,5.473 C2.048,4.79 2.484,4.184 3.131,3.969 L4.333,3.568 C4.333,3.568 8.141,5.282 8.141,5.853 C8.141,6.425 8.141,8.139 8.141,8.139 L5.747,9.096 C4.813,9.47 3.816,9.662 2.809,9.662 L2.809,9.662 C1.876,9.662 1.022,9.134 0.605,8.299 L0.524,8.139 C0.03,7.151 -0.12,6.027 0.096,4.945 L0.207,4.391 C0.414,3.358 0.922,2.409 1.667,1.664 L1.699,1.632 C2.425,0.905 3.336,0.39 4.333,0.141 L4.524,0.093 C5.372,-0.119 6.271,0.036 6.999,0.521 L6.999,0.521 C7.713,0.997 8.141,1.798 8.141,2.656 L8.141,3.568" id="路径"></path>
                </g>
                <g id="编组" transform="translate(14.985622, 45.300460) rotate(38.000000) translate(-14.985622, -45.300460) translate(5.985622, 40.300460)">
                    <path d="M4.333,6.615 L4.173,6.775 C3.814,7.134 3.264,7.223 2.809,6.996 L2.809,6.996 C2.342,6.763 2.048,6.285 2.048,5.763 L2.048,5.473 C2.048,4.79 2.484,4.184 3.131,3.969 L4.333,3.568 C4.333,3.568 8.141,5.282 8.141,5.853 C8.141,6.425 7.38,8.139 7.38,8.139 L5.695,8.981 C4.799,9.429 3.811,9.662 2.809,9.662 L2.809,9.662 C1.876,9.662 1.022,9.134 0.605,8.299 L0.524,8.139 C0.03,7.151 -0.12,6.027 0.096,4.945 L0.207,4.391 C0.414,3.358 0.922,2.409 1.667,1.664 L1.699,1.632 C2.425,0.905 3.336,0.39 4.333,0.141 L4.524,0.093 C5.372,-0.119 6.271,0.036 6.999,0.521 L6.999,0.521 C7.713,0.997 8.141,1.798 8.141,2.656 L8.141,3.568" id="路径"></path>
                    <path d="M12.712,6.615 L12.871,6.775 C13.231,7.134 13.78,7.223 14.235,6.996 L14.235,6.996 C14.702,6.763 14.997,6.285 14.997,5.763 L14.997,5.473 C14.997,4.79 14.56,4.184 13.913,3.969 L12.712,3.568 C12.712,3.568 8.903,5.282 8.903,5.853 C8.903,6.425 8.903,8.139 8.903,8.139 L11.297,9.096 C12.232,9.47 13.229,9.662 14.235,9.662 L14.235,9.662 C15.169,9.662 16.022,9.134 16.44,8.299 L16.52,8.139 C17.014,7.151 17.164,6.027 16.948,4.945 L16.837,4.391 C16.63,3.358 16.123,2.409 15.378,1.664 L15.345,1.632 C14.619,0.905 13.708,0.39 12.712,0.141 L12.52,0.093 C11.672,-0.119 10.773,0.036 10.046,0.521 L10.046,0.521 C9.332,0.997 8.903,1.798 8.903,2.656 L8.903,3.568" id="路径"></path>
                </g>
                <g id="编组" transform="translate(6.986513, 31.134033) rotate(83.000000) translate(-6.986513, -31.134033) translate(-2.013487, 26.134033)">
                    <path d="M4.333,6.615 L4.173,6.775 C3.814,7.134 3.264,7.223 2.809,6.996 L2.809,6.996 C2.342,6.763 2.048,6.285 2.048,5.763 L2.048,5.473 C2.048,4.79 2.484,4.184 3.131,3.969 L4.333,3.568 C4.333,3.568 8.141,5.282 8.141,5.853 C8.141,6.425 7.38,8.139 7.38,8.139 L5.695,8.981 C4.799,9.429 3.811,9.662 2.809,9.662 L2.809,9.662 C1.876,9.662 1.022,9.134 0.605,8.299 L0.524,8.139 C0.03,7.151 -0.12,6.027 0.096,4.945 L0.207,4.391 C0.414,3.358 0.922,2.409 1.667,1.664 L1.699,1.632 C2.425,0.905 3.336,0.39 4.333,0.141 L4.524,0.093 C5.372,-0.119 6.271,0.036 6.999,0.521 L6.999,0.521 C7.713,0.997 8.141,1.798 8.141,2.656 L8.141,3.568" id="路径"></path>
                    <path d="M12.712,6.615 L12.871,6.775 C13.231,7.134 13.78,7.223 14.235,6.996 L14.235,6.996 C14.702,6.763 14.997,6.285 14.997,5.763 L14.997,5.473 C14.997,4.79 14.56,4.184 13.913,3.969 L12.712,3.568 C12.712,3.568 8.903,5.282 8.903,5.853 C8.903,6.425 8.903,8.139 8.903,8.139 L11.297,9.096 C12.232,9.47 13.229,9.662 14.235,9.662 L14.235,9.662 C15.169,9.662 16.022,9.134 16.44,8.299 L16.52,8.139 C17.014,7.151 17.164,6.027 16.948,4.945 L16.837,4.391 C16.63,3.358 16.123,2.409 15.378,1.664 L15.345,1.632 C14.619,0.905 13.708,0.39 12.712,0.141 L12.52,0.093 C11.672,-0.119 10.773,0.036 10.046,0.521 L10.046,0.521 C9.332,0.997 8.903,1.798 8.903,2.656 L8.903,3.568" id="路径"></path>
                </g>
                <g id="编组" transform="translate(10.248315, 15.691374) rotate(126.000000) translate(-10.248315, -15.691374) translate(1.248315, 10.691374)">
                    <path d="M4.333,6.615 L4.173,6.775 C3.814,7.134 3.264,7.223 2.809,6.996 L2.809,6.996 C2.342,6.763 2.048,6.285 2.048,5.763 L2.048,5.473 C2.048,4.79 2.484,4.184 3.131,3.969 L4.333,3.568 C4.333,3.568 8.141,5.282 8.141,5.853 C8.141,6.425 7.38,8.139 7.38,8.139 L5.695,8.981 C4.799,9.429 3.811,9.662 2.809,9.662 L2.809,9.662 C1.876,9.662 1.022,9.134 0.605,8.299 L0.524,8.139 C0.03,7.151 -0.12,6.027 0.096,4.945 L0.207,4.391 C0.414,3.358 0.922,2.409 1.667,1.664 L1.699,1.632 C2.425,0.905 3.336,0.39 4.333,0.141 L4.524,0.093 C5.372,-0.119 6.271,0.036 6.999,0.521 L6.999,0.521 C7.713,0.997 8.141,1.798 8.141,2.656 L8.141,3.568" id="路径"></path>
                    <path d="M12.712,6.615 L12.871,6.775 C13.231,7.134 13.78,7.223 14.235,6.996 L14.235,6.996 C14.702,6.763 14.997,6.285 14.997,5.763 L14.997,5.473 C14.997,4.79 14.56,4.184 13.913,3.969 L12.712,3.568 C12.712,3.568 8.903,5.282 8.903,5.853 C8.903,6.425 8.903,8.139 8.903,8.139 L11.297,9.096 C12.232,9.47 13.229,9.662 14.235,9.662 L14.235,9.662 C15.169,9.662 16.022,9.134 16.44,8.299 L16.52,8.139 C17.014,7.151 17.164,6.027 16.948,4.945 L16.837,4.391 C16.63,3.358 16.123,2.409 15.378,1.664 L15.345,1.632 C14.619,0.905 13.708,0.39 12.712,0.141 L12.52,0.093 C11.672,-0.119 10.773,0.036 10.046,0.521 L10.046,0.521 C9.332,0.997 8.903,1.798 8.903,2.656 L8.903,3.568" id="路径"></path>
                </g>
            </g>
        </g>
    </g>
</svg>